<?xml version="1.0" encoding="UTF-8"?><svg id="Layer_1" xmlns="http://www.w3.org/2000/svg" viewBox="0 0 458.54 694.93"><path d="m454.95,448.15c-3.37-12.81-7.57-25.33-15.73-35.93-6.07-7.89-13.41-14.62-22.59-18.99-4.08-1.95-.75-3.39.57-4.47,15.62-12.78,23.52-30.02,26.88-49.21,2.92-16.67-3.36-31.78-11.51-45.99-5.93-10.33-14.43-18.1-25.22-23.31-5.71-2.76-11.77-1.67-17.71-1.73-3.02-.03-4.05-1.21-3.01-3.96,4.33-11.43,1.96-22.28-2.87-32.86-1.09-2.39-.65-3.9.94-5.79,3.63-4.31,7.34-8.63,10.43-13.33,8.06-12.25,14.23-25.34,18.45-39.52,4.76-15.96,5.13-32.14,4.69-48.46-.18-6.44-4.35-9.58-10.37-8.76-1.07.15-1.9.5-2.66,1.14-10.42,8.78-23.04,14.51-33.05,23.84-6.07,5.65-12.71,10.45-20.79,15.15,1.04-3.11,2.69-4.35,3.39-6.3,4.15-11.56,5.49-23.29,2.15-35.22-3.82-13.68-11.22-24.99-22.74-33.58-7.47-5.57-16.13-7.69-24.96-9.34-3.47-.65-4.49-2.07-3.64-5.37.63-2.41,1.32-4.88,1.38-7.34.86-35.44-22.47-53.97-52.38-58.25-18.45-2.64-35.95,4.02-48.16,19.6-11.67,14.9-17.91,31.71-15.21,51,.46,3.31-.44,3.63-3.39,2.83-4.14-1.12-8.21-2.72-12.68-2.45-13.89.87-27.1,3.03-39,11.53-9.78,6.99-17.87,15.27-22.13,26.16-6.74,17.26-7.09,34.99.65,52.32,1.05,2.34.8,3.74-1.89,4.43-3.54.91-7.03,1.99-10.56,2.97-16.43,4.56-32.32,4.2-48.01-3.57-6.02-2.99-10.81-7.74-16.99-10.27-3.35-1.37-8.31.85-9.52,4.16-2.77,7.55-1.4,15.01.22,22.53,4.3,19.93,12.98,37.61,26.9,52.57,4.41,4.74,9.16,9.19,13.92,13.6,1.85,1.72,2.25,3.03.4,4.93-1.15,1.18-2.02,2.64-3,3.99-7.56,10.38-10.73,21.93-8.69,34.64,1.13,7,4.32,13.24,8.62,18.9,1.53,2.01,1.66,3.14-1.38,4.07-17.68,5.4-31.63,14.81-39.41,32.8-7.41,17.15-2.27,44.57,17.06,56.18,3.54,2.12,3.77,2.96.07,4.93-7.6,4.06-14.88,8.58-20.7,15.14-9.29,10.47-16.46,22.27-19.06,35.99-3.72,19.62-3.61,39.41.53,59.08,5.65,26.8,16.24,51.58,30.52,74.81,9.54,15.52,21.78,28.87,35.6,40.64,16.36,13.93,31.9,29.01,51.81,38.2,5.67,2.62,10.74,6.62,16.52,8.88,16.07,6.29,32.79,10.38,49.9,12.74,18.83,2.59,37.56-.44,56.2-1.96,23.57-1.93,46.25-8.56,68.02-17.93,3.35-1.44,6.98-2.06,10.14-4.07,11.32-7.18,22.81-14.12,34.09-21.36,17.19-11.03,32.95-23.87,47.33-38.36,11.41-11.49,20.25-24.92,28.78-38.6,5.41-8.68,8.79-18.22,12.67-27.58,6.98-16.81,12.78-33.92,13.49-52.31.57-14.64.43-29.27-3.34-43.6ZM113.84,139.53c-.81-15.62,4.31-27.92,12.33-39.03,11.69-16.19,27.9-24.31,47.8-23.84,7.06.17,14.69.51,20.61,5.88.95.86,2.53,1.11,3.71.1,1.21-1.02.25-2.23-.12-3.21-6.62-17.56-2.33-33.16,7.23-48.57,6.05-9.76,14.42-16.54,23.85-21.81,6.37-3.56,13.76-5.72,21.93-2.92,4.76,1.63,10.35.53,15.67,1.66,20.37,4.31,44.14,34.5,33.92,60.73-1.74,4.46-.35,6.59,4.42,7.15,12.03,1.4,22.69,5.48,31.83,13.86,14.65,13.44,21.1,39.05,14.32,54.87-4.57,10.66-11.4,18.89-23.4,21.73-11.82,2.8-23.54,5.99-35.31,8.95-12.55,3.15-23.01,10.26-33.26,17.68-2.16,1.56-3.71,1.99-6.23.85-12.6-5.68-25.72-8.11-39.15-3.62-6.61,2.21-10.86-1.23-15.37-4.51-18.32-13.3-38.17-22.05-61.34-21.74-4.95.06-9.84-1.38-14.9-.88-4.47.44-4.49-4.17-4.82-6.36-.93-6.22-4.81-11.86-3.71-16.95Zm-62.66,83.1c-11.8-16.96-19.97-35.72-17.79-57.36.56-5.55,1.58-6.2,6.35-3.18,5.41,3.43,9.73,8.26,16.04,10.68,6.22,2.39,12.33,3.79,18.9,3.5,10.78-.49,21.57-.69,32.06-3.78,3.81-1.12,7.31-2.99,11.29-3.8,8.33-1.7,16.57-.15,24.85-.14,12.02,0,23.31,3.25,33.67,8.84,10.77,5.82,21.24,12.37,30.27,20.82,5,4.68,5.8,4.55,9.73-1.3,2.16-3.21,6.09-3.76,9.72-4.25,9.48-1.29,18.08,1.89,26.33,5.9,2.17,1.05,3.37,1.18,5.27-.03,6.29-4.02,13.02-7.26,19.25-11.46,10.07-6.79,21.68-10.25,33.55-12.07,22.6-3.48,42.12-13.25,60-27.11,10.87-8.43,22.82-15.42,33.27-24.47,1.84-1.6,4.44-3.19,6.83-2.13,2.66,1.19,2.9,4.34,3.02,6.99.75,16.73-1.23,33.12-6.25,49.13-6.41,20.41-18.1,37.58-32.71,52.83-6.29,6.57-14.44,10.5-23.08,13.36-9.92,3.28-20.4,4.72-30.02,8.89-12.03,5.21-23.16,11.66-29.39,25.67-4.7-11.8-7.76-22.5-12.57-32.56-2.4-5.02-5.72-9.33-8.57-14-.89-1.46-2.15-3.07-3.94-1.67-1.42,1.11-.57,2.82.42,4.01,4.3,5.18,7.07,11.27,9.79,17.3,9.23,20.44,13.66,42.31,18.92,63.95,4.38,18.02,6.39,36.39,7.6,54.72,1.38,21.03,2.04,42.16,1.65,63.3-.26,13.9,1.09,27.83,1.36,41.76.36,18.29.51,36.65-2.49,54.74-1.04,6.29-2.39,12.67-3.88,18.96-.97,4.07-3.26,5.13-6.66,5.05-9-.21-17.99-.85-26.5-4.05-11.32-4.25-21.84-9.83-29.6-19.5-2.76-3.43-5.11-2.28-7.08.64-9.96,14.78-23.72,24.22-41.03,27.77-13.2,2.71-26.43,1.45-39.32-2.8-2.7-.89-3.58-2.43-3.49-5.14.49-13.82,4.05-26.99,9.17-39.65,5.52-13.62,14.19-25.62,21.31-38.42,7.6-13.65,15.87-26.91,22.9-40.9,5.65-11.25,12.91-21.73,18.03-33.19,5.97-13.36,12.55-26.5,16.36-40.85,3.58-13.48,7.31-26.88,10-40.58,3.42-17.42,3.52-34.86,1.29-52.39-.77-6.1-1.59-12.19-2.24-18.3-1.55-14.46-9.35-26.71-13.48-40.42-3.36,1.84-2.78,3.85-1.78,6.23,9.38,22.35,14.46,45.57,13.73,69.91-.05,1.59.72,3.82-1.1,4.52-2,.78-2.72-1.59-3.52-2.84-7.21-11.25-18.43-15.39-30.79-16.92-17.75-2.2-35.54.66-53.33.2-10.95-.28-21.89-.42-32.74-2.3-28.72-4.98-52.83-18.03-69.59-42.11ZM5.43,498.64c.01-6.14-1.23-12.26-.49-18.42.69-6.93.26-14.04,2.41-20.74,5.41-16.79,13.77-31.86,28.88-41.73,5.31-3.47,10.07-8.12,16.43-9.98,1.06-.31,2.46-.61,2.24-2.16-.2-1.38-1.06-2.22-2.52-2.73-16.7-5.84-28.1-24.31-25.54-41.93,2.47-17.03,12.08-28.61,27.96-35.13,7.37-3.02,14.61-6.43,22.88-6.07,1.43.06,2.69-.38,2.85-2.1.15-1.57-.23-2.87-1.69-3.85-18.79-12.68-22.71-34.79-9.11-52.99,6.07-8.13,3.55-8.74,13.64-3.69,21.17,10.59,43.7,14.55,67.05,14.56,13.92,0,27.86-.45,41.75-1.3,16.62-1.03,31.06,3.22,41.52,16.65,4.74,6.08,8.01,12.88,6.33,21.61-2.07,10.74-2.64,21.76-5.2,32.47-6.95,29.04-19.66,55.52-35.19,80.85-6.76,11.03-12.38,22.75-18.97,33.89-5.65,9.55-9.94,19.9-16.8,28.76-1.18,1.52-1.79,3.57-2.35,5.47-2.15,7.34-7.36,10.85-14.52,12.5-23.98,5.52-42.33-5.87-54.05-24.43-1.34-2.13-2.16-4.5-2.53-7-.25-1.73-1.33-2.66-2.9-3.01-1.62-.37-2.4.95-3.19,1.96-13.58,17.36-31.53,26.83-53.2,29.66-7.41.97-14.79,2.17-22.33,1.9-2.43-.09-3.36-.69-3.35-2.99Zm12.21,49.11c-1.13-5.06-3.44-9.64-5.4-14.39-3.17-7.69-4.44-15.92-5.83-24.08-.51-2.97,1.8-2.59,3.64-2.24,8.11,1.53,16.45,1.44,24.16-.68,16.19-4.45,33.19-7.51,45.73-20.45,2.51-2.59,4.42-5.7,7.46-8.56,6.77,17.35,32.67,39.59,65.44,28.59-2.22,6.28-4.21,12.32-6.5,18.25-2.91,7.51-4.15,15.33-4.97,23.26-.34,3.29-1.41,3.99-4.32,1.76-3.95-3.03-8.09-5.8-11.4-9.58-.95-1.09-1.63-3.03-3.38-2.28-1.61.7-3.31,2.13-3.36,4.03-.09,3.36-1.94,5.72-4.14,7.65-7.97,6.97-15.28,15.2-25.39,18.92-19.53,7.19-39.23,9.59-58.73-.85-7.94-4.25-11.19-11.23-13-19.36Zm347.09,89.82c-10.55,7.52-21.35,14.79-33,20.45-14.14,6.87-28,14.48-42.91,19.6-21.02,7.22-42.67,11.39-64.99,11.18-5.71-.05-11.1,1.89-16.78,1.86-15.38-.07-30.27-2.87-45.19-6.5-24.54-5.97-45.29-18.87-65.21-33.59-5.54-4.1-11.56-7.61-17.15-13.73,4.92,1.4,8.65,2.53,12.43,3.53,29.28,7.76,55.81,2.59,79.32-16.87,3.67-3.04,8.24-5,11.01-9.12,1.53-2.27,2.49-.29,3.54.45,8.54,6.08,17.17,12.06,27.18,15.47,6.1,2.08,12.37,3.18,18.97,2.56,7.1-.66,14.42.02,21.07-3.11,5.66-2.66,11.98-4.03,16.88-8.16,3.01-2.53,6.95-3.03,10.12-5.24,4.62-3.22,7.49-7.99,11.28-11.94,1.7-1.77,2.82-2.55,5.24-.54,7.14,5.93,14.64,11.4,23.48,14.65,17.69,6.5,35.71,10.05,54.58,6.2,1.92-.39,3.88-.55,6.76-.95-5.27,5.88-11.05,9.79-16.65,13.79Zm64.79-70.57c-5.83,8.89-12.05,17.51-18.01,26.31-16.02,23.65-44.1,33.77-71.81,26.14-8.31-2.29-16.37-5.16-24.39-8.26-8.39-3.24-14.86-8.35-18.28-16.94-1.01-2.52-2.48-1.41-3.68.11-5.06,6.45-11.06,11.86-17.59,16.81-14.71,11.16-30.5,18.15-49.62,16.4-8.32-.76-15.88-3.23-23.2-6.61-6.8-3.14-11.95-8.34-14.62-15.62-.44-1.19-.57-2.81-2.34-2.82-1.56-.01-2.23,1.13-2.74,2.47-1.89,4.88-5.61,8.05-9.84,10.91-11.26,7.63-21.99,16.12-35.26,20.33-5.3,1.68-10.64,2.46-16.14,2.35-12.41-.25-24.87-.13-36.7-4.87-3.99-1.6-7.42-4.81-11.14-6.06-14.3-4.84-21.16-17.42-30.12-27.62-6.94-7.9-12.49-17.06-16.09-27.41,5.75,2.39,10.98,5.48,17.14,6.55,24.31,4.25,45.71-1.08,63.9-18.28,4.11-3.89,8.1-7.79,11.29-12.44,1.26-1.83,2.23-1.77,4.01-.54,5.32,3.68,10.85,6.99,16.61,9.98,13.37,6.95,27.76,7.84,42.23,6.63,18.2-1.53,32.85-10.78,45.54-23.4,6.07-6.03,6.18-6.31,12.49-.42,9.32,8.72,20.71,13.94,32.43,17.7,14.66,4.7,29.1,1.93,42.92-5.05,7.5-3.79,14.24-8.3,19.86-14.46,1.76-1.93,2.68-1.08,4.46.1,12.13,8.1,24.19,16.46,38.13,21.23,12.63,4.32,25.45,3.44,38.13-.23,6.05-1.75,12.05-3.7,18.74-7.53-1.11,6.09-3.62,10.45-6.31,14.55Zm24.46-73.85c-2.24,17.59-7.51,34.32-13.95,50.73-.61,1.56-1.74,2.86-3.34,3.59-16.59,7.55-33.79,12.27-52.12,8.94-12.02-2.18-22.46-8.12-31.14-16.76-3.64-3.62-7.97-6.5-11.13-10.67-1.81-2.4-3.68-1.33-5,1.02-7.09,12.6-18.94,18.17-33.2,22.81,5.69-18.28,6.81-35.61,6.95-53.02.04-4.76,1.76-5.23,6.15-4.56,25.99,3.95,49.46-2.05,69.83-18.94,1.62-1.34,2.2-1.36,4-.24,11.65,7.26,24.63,11.2,37.78,14.74,7.34,1.97,14.48,1.24,21.63-.74,2.66-.74,3.97-.34,3.53,3.11Zm.52-12.51c-.13,3.32-1.64,4.3-4.2,5.06-5.44,1.61-10.93.59-16.33.1-13.88-1.24-26.79-5.77-38.89-12.63-1.03-.59-1.92-1.24-2.53-2.3-2.49-4.3-4.41-4.66-7.45-.86-11.07,13.83-27.05,17.29-43.07,20.59-8.2,1.69-16.5,1.27-24.77.09-3.83-.55-5.99-1.77-5.88-6.51.37-15.42-.26-30.85-.3-46.29-.05-18.9-1.44-37.79-2.16-56.68-.8-20.93-2.94-41.71-6.65-62.31-1.35-7.5-2.73-15-4.93-22.35-3.75-12.55,2.57-28.02,14.1-33.94,9.47-4.87,19.59-7.97,30.03-10.27,12.65-2.79,24.26-8.13,34.14-16.64,2.59-2.23,3.61-2.03,5.03.87,2.26,4.59,3.55,9.3,3.04,13.02.27,7.46-.04,13.39-2.82,18.95-.81,1.62-1.75,3.35-.17,5.08,1.37,1.5,2.81.26,4.17-.03,14.79-3.05,26.85,1.7,36.62,12.87,8.77,10.02,12.98,22.21,16.5,34.74,4.3,15.29-.66,28.79-7.76,41.97-4.75,8.82-9.59,17.52-18.14,23.37-.27.19-.52.43-.71.7-1.47,2.14-6.09,1.42-5.52,4.85.42,2.52,4.07,2.35,6.18,3.57,11.08,6.42,21.11,14.04,27.63,25.24,8.14,13.98,12.38,29.32,14.16,45.34.53,4.77.87,9.56.68,14.42Zm-359.47-16.49c7.4,3.58,14.83,7.12,22.72,9.56,2.19.68,2.58-.63,2.69-2.21-.1-1.53-.68-2.66-2.02-3.27-6.86-3.1-13.72-6.21-20.61-9.25-1.77-.78-3.39-.14-4.25,1.48-.83,1.56-.06,2.95,1.47,3.69Zm53.76-26.8c2.06,2.83,3.26.97,4.23-.97.92-1.83-.3-3.11-1.38-4.41-4.51-5.44-10.83-9.26-14.14-15.79-.4-.79-1.17-1.14-2.09-1.05-1.26.17-2.09.95-2.63,2.03-.7,1.39.57,2.07,1.18,2.99,4.22,6.36,10.36,11.06,14.83,17.21Zm-34.35,3.28c5.96,3.87,9.91,10.4,16.98,12.81,1.25.43,2.38,2.6,3.76.66,1.26-1.78.51-3.5-1.31-4.66-5.83-3.71-10.8-8.44-15.7-13.26-.44-.44-1.1-.66-1.62-.97-1.29.32-2.45.64-2.97,1.83-.61,1.37-.38,2.78.87,3.58Zm68.27-23.3c.59,1.83,2.23,1.96,3.71,1.35,1.38-.57,1.71-1.73,1.15-3.29-2.44-6.86-4.79-13.75-7.13-20.64-.34-.99-.59-1.92-2.08-2.02-2.67.59-2.28,3.01-1.8,4.71,1.87,6.68,4.01,13.29,6.15,19.89Zm-19.22,8.54c.83,1.52,1.56,3.6,4.04,2.34,2.45-1.23,1.43-3.28.59-4.68-3.96-6.6-8.14-13.07-12.42-19.87-1.77,1.91-2.6,3.09-1.35,5.23,3.22,5.56,6.07,11.33,9.14,16.98Zm204.44-7.9c-.18-1.3-1.13-1.75-1.99-2.17-1.56-.75-2.79-.29-3.86,1.12-3.31,4.33-6.66,8.62-10.1,12.85-1.26,1.55-3.21,2.95-1.03,4.95,2.05,1.88,3.7.32,4.99-1.26,3.75-4.58,7.42-9.23,11.1-13.87.4-.5.63-1.14.89-1.62Zm23.22,36.78c-7.14,1.56-12.89,5.78-18.7,9.88-.92.65-1.41,1.44-.81,2.5.52.92,1.45,1.29,2.47,1.43.33-.08.68-.1.96-.25,6.07-3.31,12.15-6.61,18.18-9.99,1.01-.57,1.97-1.58,1.39-2.86-.74-1.63-2.27-.97-3.49-.7Zm-74.73-40.65c-.36,1.14.63,2.25,1.84,2.6,1.68.49,2.49-.78,2.88-2.04,1.02-3.3,1.97-6.63,2.73-10,.96-4.3,2.49-8.64,0-13.75-5.68,7.13-5.09,15.64-7.44,23.19Zm67.68,20.67c-1.16-1.38-2.96-1.48-4.44-.26-4.99,4.12-9.94,8.28-14.86,12.48-.95.81-1.31,1.96-.51,3.12.48.7,1.13,1.2,2.16,1.01.39-.17.91-.3,1.29-.59,5.09-3.98,10.16-7.98,15.23-11.98,1.25-.99,2.38-2.3,1.15-3.77Zm-40.18-33.74c-1.48-.22-2.62.73-3.22,1.92-2.81,5.62-5.53,11.28-8.23,16.96-.76,1.61-.29,2.86,1.42,3.61,1.81.79,2.88.16,3.34-1.64,1.25-4.89,4.46-8.85,6.34-13.43.69-1.67,1.35-3.35,1.8-4.47.02-1.73-.29-2.77-1.44-2.94Z"/></svg>